<mxfile host="app.diagrams.net" modified="2024-05-15T08:14:52.088Z" agent="Mozilla/5.0 (Macintosh; Intel Mac OS X 10_15_7) AppleWebKit/605.1.15 (KHTML, like Gecko) Version/17.1.2 Safari/605.1.15" version="24.4.0" etag="VQoHOGGROaQxVvdyabbf" type="github">
  <diagram name="第 1 页" id="huv2q6KqlGgPn7hCEl3N">
    <mxGraphModel>
      <root>
        <mxCell id="0" />
        <mxCell id="1" parent="0" />
      </root>
    </mxGraphModel>
  </diagram>
</mxfile>
